<svg width="90" height="90" viewBox="0 0 90 90" fill="none" xmlns="http://www.w3.org/2000/svg">
<path d="M21.2308 2.76953H16.8462V4.15415H21.2308V2.76953Z" fill="#F3322C"/>
<path d="M24.1539 4.1543H13.9231V5.53891H24.1539V4.1543Z" fill="#F3322C"/>
<path d="M24.1539 5.53857H13.9231V6.92319H24.1539V5.53857Z" fill="#F3322C"/>
<path d="M19.7692 6.92334H12.4615V8.30796H19.7692V6.92334Z" fill="#F3322C"/>
<path d="M22.6924 6.92334H19.7693V8.30796H22.6924V6.92334Z" fill="#F3322C"/>
<path d="M25.6153 6.92334H22.6923V8.30796H25.6153V6.92334Z" fill="#F3322C"/>
<path d="M16.8462 8.30811H12.4615V9.69272H16.8462V8.30811Z" fill="#F3322C"/>
<path d="M18.3077 8.30811H16.8462V9.69272H18.3077V8.30811Z" fill="#F3322C"/>
<path d="M21.2308 8.30811H19.7693V9.69272H21.2308V8.30811Z" fill="white"/>
<path d="M25.6154 8.30811H18.3077V9.69272H25.6154V8.30811Z" fill="#F3322C"/>
<path d="M16.8462 9.69238H12.4615V11.077H16.8462V9.69238Z" fill="#F3322C"/>
<path d="M21.2308 9.69238H16.8462V11.077H21.2308V9.69238Z" fill="#F3322C"/>
<path d="M25.6155 9.69238H21.2308V11.077H25.6155V9.69238Z" fill="#F3322C"/>
<path d="M24.1539 11.0771H13.9231V12.4618H24.1539V11.0771Z" fill="#F3322C"/>
<path d="M24.1539 12.4619H13.9231V13.8465H24.1539V12.4619Z" fill="#F3322C"/>
<path d="M21.2308 13.8467H16.8462V15.2313H21.2308V13.8467Z" fill="#F3322C"/>
<path d="M20.9238 5.65211V7.03711L22.3858 7.03711V5.65211H20.9238Z" fill="white"/>
<path d="M19.4658 5.65211V7.03711L20.9278 7.03711V5.65211H19.4658Z" fill="white"/>
<path d="M20.9238 7.03297V8.41797H22.3858V7.03297H20.9238Z" fill="white"/>
<path d="M19.4658 7.03297V8.41797H20.9278V7.03297H19.4658Z" fill="white"/>
<path d="M53.4375 8.4375H36.5625V11.25H53.4375V8.4375Z" fill="#FFC110"/>
<path d="M39.375 11.25H30.9375V14.0625H39.375V11.25Z" fill="#FFC110"/>
<path d="M50.625 11.25H39.375V14.0625H50.625V11.25Z" fill="#DB8323"/>
<path d="M59.0625 11.25H50.625V14.0625H59.0625V11.25Z" fill="#FFC110"/>
<path d="M33.75 14.0625H25.3125V16.875H33.75V14.0625Z" fill="#FFC110"/>
<path d="M39.375 14.0625H33.75V16.875H39.375V14.0625Z" fill="#DB8323"/>
<path d="M50.625 14.0625H39.375V16.875H50.625V14.0625Z" fill="#FFC110"/>
<path d="M56.25 14.0625H50.625V16.875H56.25V14.0625Z" fill="#DB8323"/>
<path d="M64.6875 14.0625H56.25V16.875H64.6875V14.0625Z" fill="#FFC110"/>
<path d="M28.125 16.875H22.5V19.6875H28.125V16.875Z" fill="#FFC110"/>
<path d="M33.75 16.875H28.125V19.6875H33.75V16.875Z" fill="#DB8323"/>
<path d="M56.25 16.875H33.75V19.6875H56.25V16.875Z" fill="#FFC110"/>
<path d="M61.875 16.875H56.25V19.6875H61.875V16.875Z" fill="#DB8323"/>
<path d="M67.5 16.875H61.875V19.6875H67.5V16.875Z" fill="#FFC110"/>
<path d="M25.3125 19.6875H22.5V22.5H25.3125V19.6875Z" fill="#FFC110"/>
<path d="M28.125 19.6875H25.3125V22.5H28.125V19.6875Z" fill="#DB8323"/>
<path d="M61.875 19.6875H28.125V22.5H61.875V19.6875Z" fill="#FFC110"/>
<path d="M64.6875 19.6875H61.875V22.5H64.6875V19.6875Z" fill="#DB8323"/>
<path d="M67.5 19.6875H64.6875V22.5H67.5V19.6875Z" fill="#FFC110"/>
<path d="M25.3125 22.5H19.6875V25.3125H25.3125V22.5Z" fill="#FFC110"/>
<path d="M28.125 22.5H25.3125V25.3125H28.125V22.5Z" fill="#DB8323"/>
<path d="M61.875 22.5H28.125V25.3125H61.875V22.5Z" fill="#FFC110"/>
<path d="M64.6875 22.5H61.875V25.3125H64.6875V22.5Z" fill="#DB8323"/>
<path d="M70.3125 22.5H64.6875V25.3125H70.3125V22.5Z" fill="#FFC110"/>
<path d="M22.5 25.3125H19.6875V28.125H22.5V25.3125Z" fill="#FFC110"/>
<path d="M25.3125 25.3125H22.5V28.125H25.3125V25.3125Z" fill="#DB8323"/>
<path d="M61.875 25.3125H25.3125V28.125H61.875V25.3125Z" fill="#FFC110"/>
<path d="M59.0625 23.9062H50.625V26.7188H59.0625V23.9062Z" fill="#FFF671"/>
<path d="M59.0625 23.9062H50.625V26.7188H59.0625V23.9062Z" fill="#FFF671"/>
<path d="M64.6875 25.3125H61.875V28.125H64.6875V25.3125Z" fill="#FFC110"/>
<path d="M67.5 25.3125H64.6875V28.125H67.5V25.3125Z" fill="#DB8323"/>
<path d="M70.3125 25.3125H67.5V28.125H70.3125V25.3125Z" fill="#FFC110"/>
<path d="M22.5 28.125H16.875V30.9375H22.5V28.125Z" fill="#FFC110"/>
<path d="M25.3125 28.125H22.5V30.9375H25.3125V28.125Z" fill="#DB8323"/>
<path d="M33.75 28.125H25.3125V30.9375H33.75V28.125Z" fill="#FFC110"/>
<path d="M42.1875 28.125H33.75V30.9375H42.1875V28.125Z" fill="#FFC110"/>
<path d="M64.6875 28.125H42.1875V30.9375H64.6875V28.125Z" fill="#FFC110"/>
<path d="M67.5 28.125H64.6875V30.9375H67.5V28.125Z" fill="#DB8323"/>
<path d="M73.125 28.125H67.5V30.9375H73.125V28.125Z" fill="#FFC110"/>
<path d="M19.6875 30.9375H16.875V33.75H19.6875V30.9375Z" fill="#FFC110"/>
<path d="M22.5 30.9375H19.6875V33.75H22.5V30.9375Z" fill="#DB8323"/>
<path d="M67.5 30.9375H22.5V33.75H67.5V30.9375Z" fill="#FFC110"/>
<path d="M70.3125 30.9375H67.5V33.75H70.3125V30.9375Z" fill="#DB8323"/>
<path d="M73.125 30.9375H70.3125V33.75H73.125V30.9375Z" fill="#FFC110"/>
<path d="M19.6875 33.75H16.875V36.5625H19.6875V33.75Z" fill="#FFC110"/>
<path d="M22.5 33.75H19.6875V36.5625H22.5V33.75Z" fill="#DB8323"/>
<path d="M67.5 33.75H22.5V36.5625H67.5V33.75Z" fill="#FFC110"/>
<path d="M70.3125 33.75H67.5V36.5625H70.3125V33.75Z" fill="#DB8323"/>
<path d="M73.125 33.75H70.3125V36.5625H73.125V33.75Z" fill="#FFC110"/>
<path d="M19.6875 36.5625H16.875V39.375H19.6875V36.5625Z" fill="#FFC110"/>
<path d="M22.5 36.5625H19.6875V39.375H22.5V36.5625Z" fill="#DB8323"/>
<path d="M67.5 36.5625H22.5V39.375H67.5V36.5625Z" fill="#FFC110"/>
<path d="M70.3125 36.5625H67.5V39.375H70.3125V36.5625Z" fill="#DB8323"/>
<path d="M73.125 36.5625H70.3125V39.375H73.125V36.5625Z" fill="#FFC110"/>
<path d="M19.6875 39.375H16.875V42.1875H19.6875V39.375Z" fill="#FFC110"/>
<path d="M22.5 39.375H19.6875V42.1875H22.5V39.375Z" fill="#DB8323"/>
<path d="M67.5 39.375H22.5V42.1875H67.5V39.375Z" fill="#FFC110"/>
<path d="M70.3125 39.375H67.5V42.1875H70.3125V39.375Z" fill="#DB8323"/>
<path d="M73.125 39.375H70.3125V42.1875H73.125V39.375Z" fill="#FFC110"/>
<path d="M22.5 42.1875H16.875V45H22.5V42.1875Z" fill="#FFC110"/>
<path d="M25.3125 42.1875H22.5V45H25.3125V42.1875Z" fill="#DB8323"/>
<path d="M73.125 42.1875H25.3125V45H73.125V42.1875Z" fill="#FFC110"/>
<path d="M22.5 45H19.6875V47.8125H22.5V45Z" fill="#FFC110"/>
<path d="M25.3125 45H22.5V47.8125H25.3125V45Z" fill="#DB8323"/>
<path d="M70.3125 45H25.3125V47.8125H70.3125V45Z" fill="#FFC110"/>
<path d="M25.3125 47.8125H19.6875V50.625H25.3125V47.8125Z" fill="#FFC110"/>
<path d="M28.125 47.8125H25.3125V50.625H28.125V47.8125Z" fill="#DB8323"/>
<path d="M70.3125 47.8125H39.375V50.625H70.3125V47.8125Z" fill="#FFC110"/>
<path d="M36.5625 47.8125H28.125V50.625H36.5625V47.8125Z" fill="#FFC110"/>
<path d="M25.3125 50.625H22.5V53.4375H25.3125V50.625Z" fill="#FFC110"/>
<path d="M28.125 50.625H25.3125V53.4375H28.125V50.625Z" fill="#DB8323"/>
<path d="M33.75 50.625H28.125V53.4375H33.75V50.625Z" fill="#FFC110"/>
<path d="M36.5625 50.625H33.75V53.4375H36.5625V50.625Z" fill="#FFC110"/>
<path d="M39.375 50.625H36.5625V53.4375H39.375V50.625Z" fill="#FFC110"/>
<path d="M50.625 50.625H39.375V53.4375H50.625V50.625Z" fill="#FFF671"/>
<path d="M39.375 47.8125H36.5625V50.625H39.375V47.8125Z" fill="#FFF671"/>
<path d="M61.875 50.625H50.625V53.4375H61.875V50.625Z" fill="#FFC110"/>
<path d="M64.6875 50.625H61.875V53.4375H64.6875V50.625Z" fill="#DB8323"/>
<path d="M67.5 50.625H64.6875V53.4375H67.5V50.625Z" fill="#FFC110"/>
<path d="M28.125 53.4375H22.5V56.25H28.125V53.4375Z" fill="#FFC110"/>
<path d="M33.75 53.4375H28.125V56.25H33.75V53.4375Z" fill="#DB8323"/>
<path d="M56.25 53.4375H33.75V56.25H56.25V53.4375Z" fill="#FFC110"/>
<path d="M61.875 53.4375H56.25V56.25H61.875V53.4375Z" fill="#DB8323"/>
<path d="M67.5 53.4375H61.875V56.25H67.5V53.4375Z" fill="#FFC110"/>
<path d="M33.75 56.25H25.3125V59.0625H33.75V56.25Z" fill="#FFC110"/>
<path d="M39.375 56.25H33.75V59.0625H39.375V56.25Z" fill="#DB8323"/>
<path d="M50.625 56.25H39.375V59.0625H50.625V56.25Z" fill="#FFC110"/>
<path d="M56.25 56.25H50.625V59.0625H56.25V56.25Z" fill="#DB8323"/>
<path d="M64.6875 56.25H56.25V59.0625H64.6875V56.25Z" fill="#FFC110"/>
<path d="M39.375 59.0625H30.9375V61.875H39.375V59.0625Z" fill="#FFC110"/>
<path d="M50.625 59.0625H39.375V61.875H50.625V59.0625Z" fill="#DB8323"/>
<path d="M59.0625 59.0625H50.625V61.875H59.0625V59.0625Z" fill="#FFC110"/>
<path d="M53.4375 61.875H36.5625V64.6875H53.4375V61.875Z" fill="#FFC110"/>
<path d="M46.0817 29.0767H29.2067V31.8459H46.0817V29.0767Z" fill="black"/>
<path d="M65.7692 29.0767H48.8942V31.8459H65.7692V29.0767Z" fill="black"/>
<path d="M32.0192 31.8457H29.2067V34.6149H32.0192V31.8457Z" fill="black"/>
<path d="M37.6442 31.8457H32.0192V34.6149H37.6442V31.8457Z" fill="white"/>
<path d="M46.0817 31.8457H37.6442V34.6149H46.0817V31.8457Z" fill="black"/>
<path d="M51.7067 31.8457H48.8942V34.6149H51.7067V31.8457Z" fill="black"/>
<path d="M57.3317 31.8457H51.7067V34.6149H57.3317V31.8457Z" fill="white"/>
<path d="M65.7692 31.8457H57.3317V34.6149H65.7692V31.8457Z" fill="black"/>
<path d="M32.0192 34.6152H20.7692V37.3845H32.0192V34.6152Z" fill="black"/>
<path d="M37.6442 34.6152H32.0192V37.3845H37.6442V34.6152Z" fill="white"/>
<path d="M51.7067 34.6152H37.6442V37.3845H51.7067V34.6152Z" fill="black"/>
<path d="M57.3317 34.6152H51.7067V37.3845H57.3317V34.6152Z" fill="white"/>
<path d="M65.7692 34.6152H57.3317V37.3845H65.7692V34.6152Z" fill="black"/>
<path d="M23.5817 37.3843H20.7692V40.1535H23.5817V37.3843Z" fill="black"/>
<path d="M32.0192 37.3843H29.2067V40.1535H32.0192V37.3843Z" fill="black"/>
<path d="M37.6442 37.3843H32.0192V40.1535H37.6442V37.3843Z" fill="white"/>
<path d="M46.0817 37.3843H37.6442V40.1535H46.0817V37.3843Z" fill="black"/>
<path d="M51.7067 37.3843H48.8942V40.1535H51.7067V37.3843Z" fill="black"/>
<path d="M57.3317 37.3843H51.7067V40.1535H57.3317V37.3843Z" fill="white"/>
<path d="M65.7692 37.3843H57.3317V40.1535H65.7692V37.3843Z" fill="black"/>
<path d="M23.5817 40.1538H20.7692V42.923H23.5817V40.1538Z" fill="black"/>
<path d="M32.0192 40.1538H29.2067V42.923H32.0192V40.1538Z" fill="black"/>
<path d="M37.6442 40.1538H32.0192V42.923H37.6442V40.1538Z" fill="white"/>
<path d="M46.0817 40.1538H37.6442V42.923H46.0817V40.1538Z" fill="black"/>
<path d="M51.7067 40.1538H48.8942V42.923H51.7067V40.1538Z" fill="black"/>
<path d="M57.3317 40.1538H51.7067V42.923H57.3317V40.1538Z" fill="white"/>
<path d="M65.7692 40.1538H57.3317V42.923H65.7692V40.1538Z" fill="black"/>
<path d="M46.0817 42.9229H29.2067V45.6921H46.0817V42.9229Z" fill="black"/>
<path d="M65.7692 42.9229H48.8942V45.6921H65.7692V42.9229Z" fill="black"/>
</svg>
