<svg width="47" height="47" viewBox="0 0 47 47" fill="none" xmlns="http://www.w3.org/2000/svg">
<path d="M1.81394 10.2354L1.78802 10.2017L1.76023 10.1696C1.55353 9.93022 1.5 9.69392 1.5 9.5C1.5 8.95911 1.89609 8.5 2.525 8.5H37.475C38.0563 8.5 38.5 8.96313 38.5 9.5V9.57016L38.5021 9.59255C38.501 9.61118 38.4976 9.64674 38.4878 9.69407C38.465 9.80365 38.4087 9.97216 38.2608 10.1541C37.9244 10.5682 34.3158 15.1749 30.8126 19.6504C29.0562 21.8943 27.3202 24.1132 26.0232 25.7711L24.4595 27.7702L24.0227 28.3286L23.9078 28.4756L23.8784 28.5132L23.8709 28.5227L23.8691 28.5251L23.8686 28.5257C23.8685 28.5259 23.8684 28.5259 25.05 29.45L23.8684 28.5259L23.55 28.9331V29.45V44.5C23.55 45.0273 23.091 45.5 22.525 45.5H17.5C16.9187 45.5 16.475 45.0369 16.475 44.5V29.475V28.9574L16.1558 28.55L14.975 29.475C16.1558 28.55 16.1558 28.5499 16.1557 28.5498L16.1552 28.5492L16.1533 28.5467L16.1456 28.537L16.1154 28.4984L15.9974 28.3478L15.5495 27.7759L13.9488 25.7325L9.07467 19.5095C7.29655 17.2392 5.51067 14.9588 4.15371 13.2257C3.47522 12.3591 2.90404 11.6294 2.4947 11.1063L2.00916 10.4856L1.87077 10.3084L1.83053 10.2568L1.81854 10.2414L1.81504 10.2369C1.8145 10.2362 1.81417 10.2357 1.81402 10.2355L1.81394 10.2354Z" fill="black" stroke="black" stroke-width="3"/>
<circle cx="35.5" cy="11.5" r="11.5" fill="#F28157"/>
</svg>
