<svg width="41" height="40" viewBox="0 0 41 40" fill="none" xmlns="http://www.w3.org/2000/svg">
<path d="M1.81394 3.23543L1.78802 3.20174L1.76023 3.16957C1.55353 2.93022 1.5 2.69392 1.5 2.5C1.5 1.95911 1.89609 1.5 2.525 1.5H37.475C38.0563 1.5 38.5 1.96313 38.5 2.5V2.57016L38.5021 2.59255C38.501 2.61118 38.4976 2.64674 38.4878 2.69407C38.465 2.80365 38.4087 2.97216 38.2608 3.15411C37.9244 3.56818 34.3158 8.17485 30.8126 12.6504C29.0562 14.8943 27.3202 17.1132 26.0232 18.7711L24.4595 20.7702L24.0227 21.3286L23.9078 21.4756L23.8784 21.5132L23.8709 21.5227L23.8691 21.5251L23.8686 21.5257C23.8685 21.5259 23.8684 21.5259 25.05 22.45L23.8684 21.5259L23.55 21.9331V22.45V37.5C23.55 38.0273 23.091 38.5 22.525 38.5H17.5C16.9187 38.5 16.475 38.0369 16.475 37.5V22.475V21.9574L16.1558 21.55L14.975 22.475C16.1558 21.55 16.1558 21.5499 16.1557 21.5498L16.1552 21.5492L16.1533 21.5467L16.1456 21.537L16.1154 21.4984L15.9974 21.3478L15.5495 20.7759L13.9488 18.7325L9.07467 12.5095C7.29655 10.2392 5.51067 7.95878 4.15371 6.22567C3.47522 5.3591 2.90404 4.62945 2.4947 4.10633L2.00916 3.4856L1.87077 3.30843L1.83053 3.25681L1.81854 3.24139L1.81504 3.23687C1.8145 3.23617 1.81417 3.23574 1.81402 3.23554L1.81394 3.23543Z" fill="black" stroke="black" stroke-width="3"/>
</svg>
