<svg width="34" height="34" viewBox="0 0 34 34" fill="none" xmlns="http://www.w3.org/2000/svg">
<g clip-path="url(#clip0_267_2005)">
<path d="M7.64209 13.7738L16.7933 5.80359" stroke="black" stroke-width="2.96536"/>
<path d="M13.1509 18.8369L15.9282 21.2557L13.1509 23.677L10.3708 21.2557L13.1509 18.8369Z" fill="black"/>
<path d="M13.1624 13.8233L13.1624 21.2384" stroke="black" stroke-width="2.57062"/>
<path d="M11.0737 13.8233L11.0737 21.2384" stroke="black" stroke-width="2.57062"/>
<path d="M15.1313 13.8233L15.1313 21.2384" stroke="black" stroke-width="2.57062"/>
<path d="M13.1624 23.0004L13.1624 30.4155" stroke="black" stroke-width="2.57277"/>
<path d="M21.3831 16.3933L21.3831 30.4105" stroke="black" stroke-width="2.9582"/>
<path d="M21.3832 13.8233C22.7917 13.8233 23.9328 15.749 23.9328 18.1207C23.9328 20.4924 22.7917 22.4156 21.3832 22.4156C19.9775 22.4156 18.8364 20.4924 18.8364 18.1207C18.8364 15.749 19.9775 13.8233 21.3832 13.8233Z" fill="#222222"/>
<path d="M17.8716 5.83086L27.02 13.801" stroke="black" stroke-width="2.96536"/>
<path d="M17.3659 4.03943L19.0181 5.47797L17.3659 6.91955L15.7136 5.47797L17.3659 4.03943Z" fill="black"/>
</g>
<rect x="1" y="1" width="32" height="32" rx="6" stroke="black" stroke-width="2"/>
<defs>
<clipPath id="clip0_267_2005">
<rect x="2" y="2" width="30" height="30" rx="5" fill="white"/>
</clipPath>
</defs>
</svg>
