<svg width="34" height="34" viewBox="0 0 34 34" fill="none" xmlns="http://www.w3.org/2000/svg">
<g clip-path="url(#clip0_267_2082)">
<path d="M24.0749 17.8963C24.111 17.6037 24.138 17.311 24.138 17C24.138 16.689 24.111 16.3963 24.0749 16.1037L25.9795 14.5945C26.151 14.4573 26.1961 14.2104 26.0878 14.0091L24.2825 10.8445C24.1741 10.6433 23.9304 10.5701 23.7318 10.6433L21.4842 11.5579C21.0148 11.1921 20.5093 10.8902 19.9586 10.6616L19.6156 8.23781C19.5885 8.01829 19.399 7.85366 19.1733 7.85366H15.5626C15.3369 7.85366 15.1473 8.01829 15.1203 8.23781L14.7772 10.6616C14.2266 10.8902 13.7211 11.2012 13.2517 11.5579L11.004 10.6433C10.7964 10.561 10.5617 10.6433 10.4534 10.8445L8.64803 14.0091C8.53068 14.2104 8.58485 14.4573 8.75636 14.5945L10.661 16.1037C10.6249 16.3963 10.5978 16.6982 10.5978 17C10.5978 17.3018 10.6249 17.6037 10.661 17.8963L8.75636 19.4055C8.58485 19.5427 8.53971 19.7896 8.64803 19.9909L10.4534 23.1555C10.5617 23.3567 10.8054 23.4299 11.004 23.3567L13.2517 22.4421C13.7211 22.8079 14.2266 23.1098 14.7772 23.3384L15.1203 25.7622C15.1473 25.9817 15.3369 26.1463 15.5626 26.1463H19.1733C19.399 26.1463 19.5885 25.9817 19.6156 25.7622L19.9586 23.3384C20.5093 23.1098 21.0148 22.7988 21.4842 22.4421L23.7318 23.3567C23.9394 23.439 24.1741 23.3567 24.2825 23.1555L26.0878 19.9909C26.1961 19.7896 26.151 19.5427 25.9795 19.4055L24.0749 17.8963ZM17.3679 20.2012C15.6258 20.2012 14.2085 18.7652 14.2085 17C14.2085 15.2348 15.6258 13.7988 17.3679 13.7988C19.1101 13.7988 20.5273 15.2348 20.5273 17C20.5273 18.7652 19.1101 20.2012 17.3679 20.2012Z" fill="#1D192B"/>
</g>
<rect x="1" y="1" width="32" height="32" rx="6" stroke="black" stroke-width="2"/>
<defs>
<clipPath id="clip0_267_2082">
<rect x="2" y="2" width="30" height="30" rx="5" fill="white"/>
</clipPath>
</defs>
</svg>
