<svg width="34" height="34" viewBox="0 0 34 34" fill="none" xmlns="http://www.w3.org/2000/svg">
<g clip-path="url(#clip0_267_2051)">
<path d="M24.5 22.1C23.55 22.1 22.7 22.475 22.05 23.0625L13.1375 17.875C13.2 17.5875 13.25 17.3 13.25 17C13.25 16.7 13.2 16.4125 13.1375 16.125L21.95 10.9875C22.625 11.6125 23.5125 12 24.5 12C26.575 12 28.25 10.325 28.25 8.25C28.25 6.175 26.575 4.5 24.5 4.5C22.425 4.5 20.75 6.175 20.75 8.25C20.75 8.55 20.8 8.8375 20.8625 9.125L12.05 14.2625C11.375 13.6375 10.4875 13.25 9.5 13.25C7.425 13.25 5.75 14.925 5.75 17C5.75 19.075 7.425 20.75 9.5 20.75C10.4875 20.75 11.375 20.3625 12.05 19.7375L20.95 24.9375C20.8875 25.2 20.85 25.475 20.85 25.75C20.85 27.7625 22.4875 29.4 24.5 29.4C26.5125 29.4 28.15 27.7625 28.15 25.75C28.15 23.7375 26.5125 22.1 24.5 22.1Z" fill="black"/>
</g>
<rect x="1" y="1" width="32" height="32" rx="6" stroke="black" stroke-width="2"/>
<defs>
<clipPath id="clip0_267_2051">
<rect x="2" y="2" width="30" height="30" rx="5" fill="white"/>
</clipPath>
</defs>
</svg>
