<svg width="34" height="34" viewBox="0 0 34 34" fill="none" xmlns="http://www.w3.org/2000/svg">
<g clip-path="url(#clip0_267_2062)">
<path fill-rule="evenodd" clip-rule="evenodd" d="M11.5121 13.7073C9.89503 13.7073 8.58528 15.0171 8.58528 16.6341C8.58528 18.2512 9.89503 19.561 11.5121 19.561C13.1292 19.561 14.4389 18.2512 14.4389 16.6341C14.4389 15.0171 13.1292 13.7073 11.5121 13.7073ZM12.9755 16.6341C12.9755 15.8293 12.317 15.1707 11.5121 15.1707C10.7072 15.1707 10.0487 15.8293 10.0487 16.6341C10.0487 17.439 10.7072 18.0976 11.5121 18.0976C12.317 18.0976 12.9755 17.439 12.9755 16.6341ZM15.9023 23.2195C15.756 22.7 13.4877 21.7561 11.5121 21.7561C9.5365 21.7561 7.2682 22.7 7.12186 23.2268V23.9512H15.9023V23.2195ZM5.65845 23.2195C5.65845 21.2732 9.55845 20.2927 11.5121 20.2927C13.4658 20.2927 17.3658 21.2732 17.3658 23.2195V25.4146H5.65845V23.2195Z" fill="black"/>
<path fill-rule="evenodd" clip-rule="evenodd" d="M23.2196 7.85366C21.6026 7.85366 20.2928 9.16342 20.2928 10.7805C20.2928 12.3976 21.6026 13.7073 23.2196 13.7073C24.8367 13.7073 26.1465 12.3976 26.1465 10.7805C26.1465 9.16342 24.8367 7.85366 23.2196 7.85366ZM24.683 10.7805C24.683 9.97561 24.0245 9.31708 23.2196 9.31708C22.4147 9.31708 21.7562 9.97561 21.7562 10.7805C21.7562 11.5854 22.4147 12.2439 23.2196 12.2439C24.0245 12.2439 24.683 11.5854 24.683 10.7805ZM27.6099 17.3659C27.4635 16.8463 25.1952 15.9024 23.2196 15.9024C21.244 15.9024 18.9757 16.8463 18.8294 17.3732V18.0976H27.6099V17.3659ZM17.366 17.3659C17.366 15.4195 21.266 14.439 23.2196 14.439C25.1733 14.439 29.0733 15.4195 29.0733 17.3659V19.561H17.366V17.3659Z" fill="black"/>
</g>
<rect x="1" y="1" width="32" height="32" rx="6" stroke="black" stroke-width="2"/>
<defs>
<clipPath id="clip0_267_2062">
<rect x="2" y="2" width="30" height="30" rx="5" fill="white"/>
</clipPath>
</defs>
</svg>
